<svg xmlns="http://www.w3.org/2000/svg" width="256" height="256" viewBox="0 0 256 256" fill="none">
  <defs>
    <linearGradient id="g" x1="40" y1="28" x2="216" y2="228" gradientUnits="userSpaceOnUse">
      <stop stop-color="#FDE68A"/>
      <stop offset="0.5" stop-color="#F59E0B"/>
      <stop offset="1" stop-color="#B45309"/>
    </linearGradient>
    <filter id="s" x="-30%" y="-30%" width="160%" height="160%">
      <feDropShadow dx="0" dy="8" stdDeviation="10" flood-color="#000" flood-opacity="0.35"/>
    </filter>
  </defs>

  <path filter="url(#s)" d="M128 18c30 22 62 25 86 28v78c0 57-38 93-86 114C80 217 42 181 42 124V46c24-3 56-6 86-28Z" fill="url(#g)" stroke="#fff" stroke-width="10" stroke-linejoin="round"/>
  <path d="M128 58l16.2 32.8 36.2 5.3-26.2 25.6 6.2 36.1L128 140.7 95.6 157.8l6.2-36.1L75.6 96.1l36.2-5.3L128 58Z" fill="#111827" opacity="0.9"/>
  <text x="128" y="210" text-anchor="middle" font-family="system-ui, -apple-system, Segoe UI, Roboto, Arial" font-size="28" font-weight="800" fill="#111827">
    LEGEND
  </text>
</svg>
